<svg width="291" height="31" viewBox="0 0 291 31" fill="none" xmlns="http://www.w3.org/2000/svg">
<path d="M11.5156 20.3516H4.44531V15.0586H11.5156C12.4792 15.0586 13.2604 14.8958 13.8594 14.5703C14.4583 14.2448 14.8945 13.7956 15.168 13.2227C15.4544 12.6367 15.5977 11.9792 15.5977 11.25C15.5977 10.4688 15.4544 9.74609 15.168 9.08203C14.8945 8.41797 14.4583 7.88411 13.8594 7.48047C13.2604 7.0638 12.4792 6.85547 11.5156 6.85547H7.02344V30H0.167969V1.5625H11.5156C13.7943 1.5625 15.7539 1.97917 17.3945 2.8125C19.0482 3.64583 20.3177 4.79167 21.2031 6.25C22.0885 7.69531 22.5312 9.34896 22.5312 11.2109C22.5312 13.0469 22.0885 14.6484 21.2031 16.0156C20.3177 17.3828 19.0482 18.4505 17.3945 19.2188C15.7539 19.974 13.7943 20.3516 11.5156 20.3516ZM32.8633 0V30H26.2617V0H32.8633ZM47.9023 24.6875V15.9766C47.9023 15.3776 47.8177 14.8633 47.6484 14.4336C47.4792 14.0039 47.2122 13.6719 46.8477 13.4375C46.4831 13.1901 45.9948 13.0664 45.3828 13.0664C44.888 13.0664 44.4648 13.151 44.1133 13.3203C43.7617 13.4896 43.4948 13.7435 43.3125 14.082C43.1302 14.4206 43.0391 14.8503 43.0391 15.3711H36.457C36.457 14.3945 36.6719 13.4896 37.1016 12.6562C37.5443 11.8099 38.1693 11.0742 38.9766 10.4492C39.7969 9.82422 40.7734 9.34245 41.9062 9.00391C43.0521 8.65234 44.3281 8.47656 45.7344 8.47656C47.4141 8.47656 48.9115 8.75651 50.2266 9.31641C51.5547 9.8763 52.6029 10.7161 53.3711 11.8359C54.1393 12.9427 54.5234 14.3359 54.5234 16.0156V24.668C54.5234 26.0482 54.6016 27.0964 54.7578 27.8125C54.9141 28.5156 55.1354 29.1341 55.4219 29.668V30H48.8203C48.5078 29.349 48.2734 28.5547 48.1172 27.6172C47.974 26.6667 47.9023 25.6901 47.9023 24.6875ZM48.7031 17.0898L48.7422 20.6055H45.832C45.2201 20.6055 44.6992 20.6901 44.2695 20.8594C43.8529 21.0286 43.5143 21.263 43.2539 21.5625C43.0065 21.849 42.8242 22.1745 42.707 22.5391C42.6029 22.9036 42.5508 23.2878 42.5508 23.6914C42.5508 24.082 42.6419 24.4336 42.8242 24.7461C43.0195 25.0456 43.2799 25.2799 43.6055 25.4492C43.931 25.6185 44.2956 25.7031 44.6992 25.7031C45.4284 25.7031 46.0469 25.5664 46.5547 25.293C47.0755 25.0065 47.4727 24.6615 47.7461 24.2578C48.0195 23.8542 48.1562 23.4766 48.1562 23.125L49.6016 25.8203C49.3411 26.3411 49.0417 26.8685 48.7031 27.4023C48.3776 27.9362 47.9674 28.431 47.4727 28.8867C46.9909 29.3294 46.3984 29.694 45.6953 29.9805C44.9922 30.2539 44.1393 30.3906 43.1367 30.3906C41.8346 30.3906 40.6367 30.1237 39.543 29.5898C38.4622 29.056 37.5964 28.3138 36.9453 27.3633C36.2943 26.3997 35.9688 25.293 35.9688 24.043C35.9688 22.9492 36.1641 21.9727 36.5547 21.1133C36.9583 20.2539 37.5638 19.5247 38.3711 18.9258C39.1784 18.3268 40.207 17.8711 41.457 17.5586C42.707 17.2461 44.1784 17.0898 45.8711 17.0898H48.7031ZM64.6406 13.3789V30H58.0586V8.86719H64.2305L64.6406 13.3789ZM63.8594 18.7109L62.3164 18.75C62.3164 17.1354 62.5117 15.6966 62.9023 14.4336C63.293 13.1576 63.8464 12.0768 64.5625 11.1914C65.2786 10.306 66.1315 9.63542 67.1211 9.17969C68.1237 8.71094 69.237 8.47656 70.4609 8.47656C71.4375 8.47656 72.3294 8.61979 73.1367 8.90625C73.957 9.19271 74.6602 9.65495 75.2461 10.293C75.8451 10.931 76.3008 11.7773 76.6133 12.832C76.9388 13.8737 77.1016 15.1628 77.1016 16.6992V30H70.4805V16.6797C70.4805 15.8333 70.3633 15.1888 70.1289 14.7461C69.8945 14.2904 69.556 13.9779 69.1133 13.8086C68.6706 13.6393 68.1302 13.5547 67.4922 13.5547C66.8151 13.5547 66.2422 13.6849 65.7734 13.9453C65.3047 14.2057 64.9271 14.5703 64.6406 15.0391C64.3672 15.4948 64.1654 16.0352 64.0352 16.6602C63.918 17.2852 63.8594 17.9688 63.8594 18.7109ZM115.09 15.2148V16.3672C115.09 18.5417 114.784 20.4948 114.172 22.2266C113.573 23.9453 112.72 25.4167 111.613 26.6406C110.507 27.8516 109.198 28.7826 107.688 29.4336C106.177 30.0716 104.51 30.3906 102.688 30.3906C100.852 30.3906 99.1719 30.0716 97.6484 29.4336C96.138 28.7826 94.8229 27.8516 93.7031 26.6406C92.5964 25.4167 91.737 23.9453 91.125 22.2266C90.526 20.4948 90.2266 18.5417 90.2266 16.3672V15.2148C90.2266 13.0404 90.526 11.0872 91.125 9.35547C91.737 7.6237 92.5898 6.15234 93.6836 4.94141C94.7904 3.71745 96.099 2.78646 97.6094 2.14844C99.1328 1.4974 100.812 1.17188 102.648 1.17188C104.471 1.17188 106.138 1.4974 107.648 2.14844C109.172 2.78646 110.487 3.71745 111.594 4.94141C112.701 6.15234 113.56 7.6237 114.172 9.35547C114.784 11.0872 115.09 13.0404 115.09 15.2148ZM108.137 16.3672V15.1758C108.137 13.7695 108.013 12.5326 107.766 11.4648C107.531 10.3841 107.18 9.47917 106.711 8.75C106.242 8.02083 105.663 7.47396 104.973 7.10938C104.296 6.73177 103.521 6.54297 102.648 6.54297C101.737 6.54297 100.943 6.73177 100.266 7.10938C99.5885 7.47396 99.0221 8.02083 98.5664 8.75C98.1107 9.47917 97.7656 10.3841 97.5312 11.4648C97.3099 12.5326 97.1992 13.7695 97.1992 15.1758V16.3672C97.1992 17.7604 97.3099 18.9974 97.5312 20.0781C97.7656 21.1458 98.1107 22.0508 98.5664 22.793C99.0352 23.5352 99.6081 24.0951 100.285 24.4727C100.975 24.8503 101.776 25.0391 102.688 25.0391C103.56 25.0391 104.335 24.8503 105.012 24.4727C105.689 24.0951 106.255 23.5352 106.711 22.793C107.18 22.0508 107.531 21.1458 107.766 20.0781C108.013 18.9974 108.137 17.7604 108.137 16.3672ZM130.676 24.8633V8.86719H137.277V30H131.105L130.676 24.8633ZM131.301 20.5664L133.02 20.5273C133.02 21.9466 132.85 23.2617 132.512 24.4727C132.173 25.6706 131.672 26.7122 131.008 27.5977C130.357 28.4831 129.549 29.1732 128.586 29.668C127.635 30.1497 126.535 30.3906 125.285 30.3906C124.243 30.3906 123.286 30.2474 122.414 29.9609C121.555 29.6615 120.812 29.1992 120.188 28.5742C119.562 27.9362 119.074 27.1224 118.723 26.1328C118.384 25.1302 118.215 23.9323 118.215 22.5391V8.86719H124.797V22.5781C124.797 23.0469 124.855 23.4505 124.973 23.7891C125.09 24.1276 125.259 24.4141 125.48 24.6484C125.702 24.8698 125.975 25.0391 126.301 25.1562C126.639 25.2604 127.023 25.3125 127.453 25.3125C128.443 25.3125 129.217 25.1042 129.777 24.6875C130.337 24.2708 130.728 23.7044 130.949 22.9883C131.184 22.2721 131.301 21.4648 131.301 20.5664ZM147.551 14.1016V30H140.969V8.86719H147.121L147.551 14.1016ZM153.801 8.71094L153.684 14.8242C153.423 14.7982 153.072 14.7656 152.629 14.7266C152.186 14.6875 151.815 14.668 151.516 14.668C150.747 14.668 150.083 14.7591 149.523 14.9414C148.977 15.1107 148.521 15.3711 148.156 15.7227C147.805 16.0612 147.544 16.4909 147.375 17.0117C147.219 17.5326 147.147 18.138 147.16 18.8281L145.969 18.0469C145.969 16.6276 146.105 15.3385 146.379 14.1797C146.665 13.0078 147.069 11.9987 147.59 11.1523C148.111 10.293 148.742 9.63542 149.484 9.17969C150.227 8.71094 151.06 8.47656 151.984 8.47656C152.31 8.47656 152.629 8.49609 152.941 8.53516C153.267 8.57422 153.553 8.63281 153.801 8.71094ZM178.938 1.5625V30H172.082V1.5625H178.938ZM187.492 1.5625V6.85547H163.723V1.5625H187.492ZM195.441 14.1016V30H188.859V8.86719H195.012L195.441 14.1016ZM201.691 8.71094L201.574 14.8242C201.314 14.7982 200.962 14.7656 200.52 14.7266C200.077 14.6875 199.706 14.668 199.406 14.668C198.638 14.668 197.974 14.7591 197.414 14.9414C196.867 15.1107 196.411 15.3711 196.047 15.7227C195.695 16.0612 195.435 16.4909 195.266 17.0117C195.109 17.5326 195.038 18.138 195.051 18.8281L193.859 18.0469C193.859 16.6276 193.996 15.3385 194.27 14.1797C194.556 13.0078 194.96 11.9987 195.48 11.1523C196.001 10.293 196.633 9.63542 197.375 9.17969C198.117 8.71094 198.951 8.47656 199.875 8.47656C200.201 8.47656 200.52 8.49609 200.832 8.53516C201.158 8.57422 201.444 8.63281 201.691 8.71094ZM214.348 24.6875V15.9766C214.348 15.3776 214.263 14.8633 214.094 14.4336C213.924 14.0039 213.658 13.6719 213.293 13.4375C212.928 13.1901 212.44 13.0664 211.828 13.0664C211.333 13.0664 210.91 13.151 210.559 13.3203C210.207 13.4896 209.94 13.7435 209.758 14.082C209.576 14.4206 209.484 14.8503 209.484 15.3711H202.902C202.902 14.3945 203.117 13.4896 203.547 12.6562C203.99 11.8099 204.615 11.0742 205.422 10.4492C206.242 9.82422 207.219 9.34245 208.352 9.00391C209.497 8.65234 210.773 8.47656 212.18 8.47656C213.859 8.47656 215.357 8.75651 216.672 9.31641C218 9.8763 219.048 10.7161 219.816 11.8359C220.585 12.9427 220.969 14.3359 220.969 16.0156V24.668C220.969 26.0482 221.047 27.0964 221.203 27.8125C221.359 28.5156 221.581 29.1341 221.867 29.668V30H215.266C214.953 29.349 214.719 28.5547 214.562 27.6172C214.419 26.6667 214.348 25.6901 214.348 24.6875ZM215.148 17.0898L215.188 20.6055H212.277C211.665 20.6055 211.145 20.6901 210.715 20.8594C210.298 21.0286 209.96 21.263 209.699 21.5625C209.452 21.849 209.27 22.1745 209.152 22.5391C209.048 22.9036 208.996 23.2878 208.996 23.6914C208.996 24.082 209.087 24.4336 209.27 24.7461C209.465 25.0456 209.725 25.2799 210.051 25.4492C210.376 25.6185 210.741 25.7031 211.145 25.7031C211.874 25.7031 212.492 25.5664 213 25.293C213.521 25.0065 213.918 24.6615 214.191 24.2578C214.465 23.8542 214.602 23.4766 214.602 23.125L216.047 25.8203C215.786 26.3411 215.487 26.8685 215.148 27.4023C214.823 27.9362 214.413 28.431 213.918 28.8867C213.436 29.3294 212.844 29.694 212.141 29.9805C211.438 30.2539 210.585 30.3906 209.582 30.3906C208.28 30.3906 207.082 30.1237 205.988 29.5898C204.908 29.056 204.042 28.3138 203.391 27.3633C202.74 26.3997 202.414 25.293 202.414 24.043C202.414 22.9492 202.609 21.9727 203 21.1133C203.404 20.2539 204.009 19.5247 204.816 18.9258C205.624 18.3268 206.652 17.8711 207.902 17.5586C209.152 17.2461 210.624 17.0898 212.316 17.0898H215.148ZM231.086 13.3789V30H224.504V8.86719H230.676L231.086 13.3789ZM230.305 18.7109L228.762 18.75C228.762 17.1354 228.957 15.6966 229.348 14.4336C229.738 13.1576 230.292 12.0768 231.008 11.1914C231.724 10.306 232.577 9.63542 233.566 9.17969C234.569 8.71094 235.682 8.47656 236.906 8.47656C237.883 8.47656 238.775 8.61979 239.582 8.90625C240.402 9.19271 241.105 9.65495 241.691 10.293C242.29 10.931 242.746 11.7773 243.059 12.832C243.384 13.8737 243.547 15.1628 243.547 16.6992V30H236.926V16.6797C236.926 15.8333 236.809 15.1888 236.574 14.7461C236.34 14.2904 236.001 13.9779 235.559 13.8086C235.116 13.6393 234.576 13.5547 233.938 13.5547C233.26 13.5547 232.688 13.6849 232.219 13.9453C231.75 14.2057 231.372 14.5703 231.086 15.0391C230.812 15.4948 230.611 16.0352 230.48 16.6602C230.363 17.2852 230.305 17.9688 230.305 18.7109ZM258.273 24.0625C258.273 23.6979 258.15 23.3854 257.902 23.125C257.668 22.8516 257.251 22.6042 256.652 22.3828C256.053 22.1484 255.214 21.9141 254.133 21.6797C253.104 21.4583 252.134 21.1654 251.223 20.8008C250.324 20.4362 249.536 19.9935 248.859 19.4727C248.182 18.9518 247.648 18.3333 247.258 17.6172C246.88 16.901 246.691 16.0807 246.691 15.1562C246.691 14.2578 246.88 13.4115 247.258 12.6172C247.648 11.8099 248.215 11.1003 248.957 10.4883C249.712 9.86328 250.63 9.375 251.711 9.02344C252.792 8.65885 254.022 8.47656 255.402 8.47656C257.303 8.47656 258.944 8.76953 260.324 9.35547C261.704 9.92839 262.766 10.7357 263.508 11.7773C264.263 12.806 264.641 13.9974 264.641 15.3516H258.059C258.059 14.8177 257.967 14.362 257.785 13.9844C257.616 13.6068 257.336 13.3203 256.945 13.125C256.555 12.9167 256.034 12.8125 255.383 12.8125C254.927 12.8125 254.51 12.8971 254.133 13.0664C253.768 13.2357 253.475 13.4701 253.254 13.7695C253.033 14.069 252.922 14.4206 252.922 14.8242C252.922 15.1107 252.987 15.3711 253.117 15.6055C253.26 15.8268 253.475 16.0352 253.762 16.2305C254.048 16.4128 254.413 16.582 254.855 16.7383C255.298 16.8815 255.832 17.0117 256.457 17.1289C257.876 17.3893 259.204 17.7604 260.441 18.2422C261.678 18.724 262.681 19.4076 263.449 20.293C264.23 21.1784 264.621 22.3698 264.621 23.8672C264.621 24.8047 264.406 25.6706 263.977 26.4648C263.547 27.2461 262.928 27.9362 262.121 28.5352C261.314 29.1211 260.344 29.5768 259.211 29.9023C258.078 30.2279 256.802 30.3906 255.383 30.3906C253.365 30.3906 251.659 30.0326 250.266 29.3164C248.872 28.5872 247.818 27.6758 247.102 26.582C246.398 25.4753 246.047 24.3555 246.047 23.2227H252.18C252.206 23.8737 252.362 24.4076 252.648 24.8242C252.948 25.2409 253.345 25.5469 253.84 25.7422C254.335 25.9375 254.908 26.0352 255.559 26.0352C256.158 26.0352 256.652 25.9505 257.043 25.7812C257.447 25.612 257.753 25.3841 257.961 25.0977C258.169 24.7982 258.273 24.4531 258.273 24.0625ZM274.66 8.86719V30H268.059V8.86719H274.66ZM267.668 3.41797C267.668 2.48047 268.007 1.71224 268.684 1.11328C269.361 0.514323 270.24 0.214844 271.32 0.214844C272.401 0.214844 273.28 0.514323 273.957 1.11328C274.634 1.71224 274.973 2.48047 274.973 3.41797C274.973 4.35547 274.634 5.1237 273.957 5.72266C273.28 6.32161 272.401 6.62109 271.32 6.62109C270.24 6.62109 269.361 6.32161 268.684 5.72266C268.007 5.1237 267.668 4.35547 267.668 3.41797ZM289.855 8.86719V13.4375H277.121V8.86719H289.855ZM279.797 3.61328H286.379V23.1055C286.379 23.6654 286.444 24.1016 286.574 24.4141C286.704 24.7135 286.926 24.9284 287.238 25.0586C287.564 25.1758 287.993 25.2344 288.527 25.2344C288.905 25.2344 289.217 25.2279 289.465 25.2148C289.712 25.1888 289.947 25.1562 290.168 25.1172V29.8242C289.608 30.0065 289.022 30.1432 288.41 30.2344C287.798 30.3385 287.147 30.3906 286.457 30.3906C285.051 30.3906 283.846 30.1693 282.844 29.7266C281.854 29.2839 281.099 28.5872 280.578 27.6367C280.057 26.6862 279.797 25.4492 279.797 23.9258V3.61328Z" fill="#14213D"/>
</svg>
